<?xml version="1.0" encoding="utf-8"?>
<!-- Generator: Adobe Illustrator 23.0.3, SVG Export Plug-In . SVG Version: 6.00 Build 0)  -->
<svg version="1.1" id="Layer_1" xmlns="http://www.w3.org/2000/svg" xmlns:xlink="http://www.w3.org/1999/xlink" x="0px" y="0px"
	 viewBox="0 0 195.9 149.3" style="enable-background:new 0 0 195.9 149.3;" xml:space="preserve">
<style type="text/css">
	.st0{fill:#FFFFFF;}
</style>
<path class="st0" d="M178,97.9c-0.6-7.9-2.4-15.7-5.2-23c2.9-7.4,4.7-15.3,5.4-23.5c4.6,7.1,8.4,14.8,11.1,23.1
	C186.5,83,182.7,90.8,178,97.9 M156.8,120.7c1.6-5.5,2.4-11.2,2.4-17.1c0-1.9-0.1-3.8-0.3-5.7c4.4-5.2,8.3-11,11.3-17.2
	c2.3,7.2,3.6,14.9,3.6,22.9C168.9,110.1,163.1,115.8,156.8,120.7 M137.9,115.4c6.2-3.6,11.9-7.9,16.9-12.9c0,0.4,0,0.8,0,1.2
	c0,7.4-1.4,14.6-4.3,21.5c-8.7,5.7-18.4,9.9-28.7,12.5C129.5,132.3,135.2,124.5,137.9,115.4 M46.6,125.1c-2.8-6.8-4.3-14-4.3-21.5
	c0-0.5,0-1.1,0.1-1.6c5.1,5.2,10.7,9.6,16.8,13.1c2.6,9.2,8.4,17.1,16.1,22.4C65,135,55.4,130.7,46.6,125.1 M23.2,103.5
	c0-8.2,1.4-16.1,3.8-23.5c3,6.2,6.8,12.1,11.3,17.4c-0.2,2-0.3,4.1-0.3,6.1c0,5.8,0.8,11.5,2.4,17.1C34,115.7,28.2,110,23.2,103.5
	 M19.2,51.1c0.6,7.9,2.4,15.7,5.2,23c-2.9,7.4-4.7,15.3-5.4,23.5c-4.6-7-8.4-14.8-11.1-23.1C10.7,66.1,14.5,58.2,19.2,51.1
	 M158.9,51.6c0.2-2,0.3-4.1,0.3-6.1c0-5.8-0.8-11.5-2.4-17.1c4.2,3.2,8.1,6.8,11.7,10.6c1.7,1.8,3.3,3.7,4.8,5.6
	c0.2,0.3,0.5,0.6,0.7,0.9c0,8.2-1.4,16.1-3.8,23.5C167.2,62.8,163.4,56.9,158.9,51.6 M151.8,74.5c3-5.4,5.1-11.2,6.3-17.2
	c4.1,5.3,7.4,11.2,10,17.5c-2.6,6.2-6,11.9-10,17.1C156.9,85.9,154.7,80,151.8,74.5 M137.7,91.7c4.3-3.7,8.2-7.9,11.4-12.7
	c2.7,5.5,4.5,11.5,5.2,17.6c-4.5,5-9.6,9.3-15.2,12.9c0.3-1.8,0.4-3.7,0.4-5.6C139.6,99.6,138.9,95.5,137.7,91.7 M113.6,120
	c4.3-4,7.1-9.8,7.1-16.1c0-0.7,0-1.3-0.1-1.9c4.8-1.9,9.3-4.3,13.4-7.3c0.8,2.9,1.2,6,1.2,9.2c0,3-0.4,5.9-1,8.6
	C127.8,115.9,120.9,118.5,113.6,120 M62,103.8c0-3.2,0.4-6.3,1.2-9.2c4.1,3,8.7,5.4,13.4,7.3c-0.1,0.6-0.1,1.3-0.1,1.9
	c0,6.4,2.7,12.1,7,16.1c-7.3-1.5-14.2-4.1-20.5-7.6C62.4,109.6,62,106.8,62,103.8 M48.1,78.9c3.2,4.8,7,9.1,11.4,12.7
	c-1.2,3.8-1.8,7.9-1.8,12.2c0,1.9,0.1,3.7,0.4,5.5c-5.6-3.7-10.7-8.1-15.1-13C43.7,90.2,45.4,84.4,48.1,78.9 M39.1,57.1
	c1.2,6.1,3.3,12,6.3,17.5c-3,5.4-5.1,11.2-6.3,17.2c-4.1-5.3-7.4-11.2-10-17.5C31.7,68,35.1,62.3,39.1,57.1 M40.4,28.4
	c-1.6,5.5-2.4,11.2-2.4,17c0,1.9,0.1,3.8,0.3,5.7C33.8,56.3,30,62,27,68.3c-2.3-7.2-3.6-14.9-3.6-22.9
	C28.3,38.9,34.1,33.2,40.4,28.4 M154.8,45.4c0,0.5,0,1.1-0.1,1.6c-5.1-5.2-10.7-9.6-16.8-13.1c-2.6-9.2-8.4-17.1-16.1-22.4
	c10.3,2.6,20,6.8,28.7,12.5C153.4,30.8,154.8,38,154.8,45.4 M149.1,70.1c-3.2-4.8-7-9.1-11.4-12.7c1.2-3.8,1.8-7.9,1.8-12.2
	c0-1.9-0.1-3.7-0.4-5.5c5.6,3.7,10.7,8.1,15.1,13C153.5,58.8,151.8,64.6,149.1,70.1 M127.2,74.5c3.7-3.6,6.7-7.9,8.9-12.8
	c4.1,3.7,7.7,7.9,10.6,12.7c-2.9,4.8-6.5,9.1-10.6,12.8C133.9,82.5,130.9,78.1,127.2,74.5 M109.5,84.7c5.3-1.5,10.1-4,14.3-7.3
	c3.7,3.6,6.7,7.9,8.7,12.8c-3.9,3-8.2,5.4-12.8,7.3C118.1,92,114.4,87.5,109.5,84.7 M73.3,77.4c4.2,3.3,9.1,5.8,14.3,7.3
	c-4.8,2.8-8.5,7.3-10.2,12.8c-4.6-1.9-8.9-4.3-12.8-7.3C66.6,85.3,69.6,81,73.3,77.4 M61.1,61.8c2.1,4.8,5.2,9.1,8.9,12.7
	c-3.7,3.6-6.7,7.9-8.9,12.8c-4.1-3.7-7.7-7.9-10.6-12.8C53.4,69.7,57,65.4,61.1,61.8 M58,39.6c-0.3,1.8-0.4,3.7-0.4,5.6
	c0,4.2,0.6,8.3,1.8,12.2c-4.3,3.7-8.2,7.9-11.4,12.7c-2.7-5.5-4.5-11.5-5.2-17.6C47.3,47.6,52.4,43.2,58,39.6 M59.3,33.7
	c-6.2,3.6-11.8,7.9-16.9,12.9c0-0.4,0-0.8,0-1.2c0-7.4,1.4-14.7,4.3-21.5C55.4,18.3,65,14,75.3,11.5C67.7,16.8,62,24.5,59.3,33.7
	 M98.6,23.1c-12,0-23.3,2.7-33.5,7.5c5.6-12.9,18.5-22,33.5-22l0,0c15,0,28,9.1,33.6,22.2C121.8,25.8,110.4,23.1,98.6,23.1
	 M98.6,62.8c-8,0-14.8-5.4-17-12.8c5.4-1.7,11.1-2.7,17-2.7c5.8,0,11.5,0.9,16.9,2.7C113.4,57.4,106.6,62.8,98.6,62.8 M116.2,45.2
	c0,0.1,0,0.3,0,0.4c-5.6-1.7-11.6-2.6-17.6-2.6s-12,0.9-17.6,2.6c0-0.1,0-0.3,0-0.4c0-9.7,7.9-17.6,17.7-17.6
	C108.3,27.5,116.2,35.5,116.2,45.2 M62,45.2c0-3,0.4-5.9,1-8.6c6.4-3.5,13.3-6,20.5-7.5c-4.3,4-7.1,9.8-7.1,16.1
	c0,0.7,0,1.3,0.1,1.9c-4.8,1.9-9.3,4.3-13.4,7.3C62.4,51.5,62,48.4,62,45.2 M64.7,58.8c3.9-3,8.2-5.4,12.8-7.3
	c1.6,5.4,5.3,10,10.2,12.8c-5.3,1.5-10.1,4-14.3,7.3C69.6,68,66.6,63.7,64.7,58.8 M98.6,81.8c-8.2,0-15.7-2.7-21.8-7.3
	c6.1-4.6,13.7-7.3,21.8-7.3c8.2,0,15.7,2.7,21.8,7.3C114.3,79.1,106.8,81.8,98.6,81.8 M123.9,71.6c-4.2-3.3-9.1-5.8-14.3-7.3
	c4.8-2.8,8.5-7.3,10.2-12.8c4.6,1.9,8.9,4.3,12.8,7.3C130.6,63.7,127.6,68,123.9,71.6 M135.2,45.2c0,3.2-0.4,6.3-1.2,9.2
	c-4.1-3-8.7-5.4-13.4-7.3c0.1-0.6,0.1-1.3,0.1-1.9c0-6.4-2.7-12.1-7-16.1c7.3,1.5,14.2,4.1,20.5,7.6
	C134.8,39.4,135.2,42.3,135.2,45.2 M98.6,101.6c-5.8,0-11.5-0.9-17-2.7c2.1-7.4,8.9-12.8,17-12.8s14.8,5.4,17,12.8
	C110.1,100.7,104.4,101.6,98.6,101.6 M116.2,103.8c0,9.7-7.9,17.7-17.6,17.7s-17.7-7.9-17.7-17.7c0-0.1,0-0.3,0-0.4
	c5.6,1.7,11.6,2.6,17.6,2.6s12-0.9,17.6-2.6C116.2,103.5,116.2,103.7,116.2,103.8 M98.6,140.4c-15,0-28-9.1-33.6-22.2
	c10.4,5,21.8,7.6,33.6,7.6c12,0,23.3-2.7,33.5-7.5C126.5,131.3,113.6,140.4,98.6,140.4L98.6,140.4z M193.6,73.9
	c-3.3-10.4-8.1-20-14.2-28.5C161.1,20,131.4,4.2,98.6,4.2l0,0l0,0l0,0c-43.7,0-81.9,28-95,69.6c-0.1,0.4-0.1,0.9,0,1.3
	c13.1,41.7,51.3,69.6,95,69.6l0,0l0,0c43.7,0,81.9-28,95-69.6C193.8,74.7,193.8,74.3,193.6,73.9"/>
</svg>
