<?xml version="1.0" encoding="utf-8"?>
<!-- Generator: Adobe Illustrator 23.0.3, SVG Export Plug-In . SVG Version: 6.00 Build 0)  -->
<svg version="1.1" id="Layer_1" xmlns="http://www.w3.org/2000/svg" xmlns:xlink="http://www.w3.org/1999/xlink" x="0px" y="0px"
	 viewBox="0 0 376.9 63.7" style="enable-background:new 0 0 376.9 63.7;" xml:space="preserve">
<style type="text/css">
	.st0{fill:#FFFFFF;}
</style>
<g>
	<path class="st0" d="M32.1,3.9C16.2,3.9,3.4,16.7,3.4,32.6c0,15.8,12.9,28.7,28.7,28.7c15.8,0,28.7-12.9,28.7-28.7
		C60.8,16.7,47.9,3.9,32.1,3.9z M32.1,52.2c-10.8,0-19.6-8.8-19.6-19.6c0-10.8,8.8-19.6,19.6-19.6c10.8,0,19.6,8.8,19.6,19.6
		C51.7,43.4,42.9,52.2,32.1,52.2z"/>
	<path class="st0" d="M123.2,3.9c-2.5,0-4.6,2-4.6,4.6v43.7H89.5c-2.5,0-4.6,2-4.6,4.6c0,2.5,2,4.6,4.6,4.6h33.6
		c2.5,0,4.6-2,4.6-4.6V8.4C127.7,5.9,125.7,3.9,123.2,3.9z"/>
	<path class="st0" d="M346.5,3.9c-15.8,0-28.7,12.9-28.7,28.7c0,15.8,12.9,28.7,28.7,28.7c15.8,0,28.7-12.9,28.7-28.7
		C375.3,16.7,362.4,3.9,346.5,3.9z M346.5,52.2c-10.8,0-19.6-8.8-19.6-19.6c0-10.8,8.8-19.6,19.6-19.6s19.6,8.8,19.6,19.6
		C366.1,43.4,357.3,52.2,346.5,52.2z"/>
	<path class="st0" d="M289.1,52.2H260V8.4c0-2.5-2-4.6-4.6-4.6s-4.6,2-4.6,4.6v48.3c0,2.5,2,4.6,4.6,4.6c0,0,0,0,0,0s0,0,0,0h33.6
		c2.5,0,4.6-2,4.6-4.6C293.7,54.2,291.6,52.2,289.1,52.2z"/>
	<path class="st0" d="M211.9,52.3h-48.4c-2.5,0-4.6,2-4.6,4.6c0,2.5,2,4.6,4.6,4.6h48.4c2.5,0,4.6-2,4.6-4.6
		C216.4,54.3,214.4,52.3,211.9,52.3z"/>
	<path class="st0" d="M163.5,37h48.4c2.4,0,4.3-1.9,4.3-4.3c0-2.4-1.9-4.3-4.3-4.3h-48.4c-2.4,0-4.3,1.9-4.3,4.3
		C159.2,35.1,161.1,37,163.5,37z"/>
	<path class="st0" d="M211.9,4h-48.4c-2.5,0-4.6,2-4.6,4.6c0,2.5,2,4.6,4.6,4.6h48.4c2.5,0,4.6-2,4.6-4.6C216.4,6,214.4,4,211.9,4z"
		/>
</g>
</svg>
